<mxfile host="app.diagrams.net" modified="2021-11-13T17:51:22.008Z" agent="5.0 (Windows NT 10.0; Win64; x64) AppleWebKit/537.36 (KHTML, like Gecko) Chrome/95.0.4638.69 Safari/537.36" etag="oaMHXvnfxLUQr-4QCqdT" version="15.7.0" type="github">
  <diagram id="Et4uIG5S1velhCn4JriN" name="Page-1">
    <mxGraphModel dx="2889" dy="1154" grid="1" gridSize="10" guides="1" tooltips="1" connect="1" arrows="1" fold="1" page="1" pageScale="1" pageWidth="827" pageHeight="1169" math="0" shadow="0">
      <root>
        <mxCell id="0" />
        <mxCell id="1" parent="0" />
        <mxCell id="ZQEBHGsIlJ_VUrHNmOR6-2" value="生成网格空间坐标及邻接关系" style="rounded=0;whiteSpace=wrap;html=1;" vertex="1" parent="1">
          <mxGeometry x="-280" y="150" width="120" height="60" as="geometry" />
        </mxCell>
        <mxCell id="ZQEBHGsIlJ_VUrHNmOR6-3" value="" style="rounded=0;whiteSpace=wrap;html=1;" vertex="1" parent="1">
          <mxGeometry x="-280" y="270" width="120" height="60" as="geometry" />
        </mxCell>
      </root>
    </mxGraphModel>
  </diagram>
</mxfile>
